{
  "accessors": [
    {
      "bufferView": 2,
      "componentType": 5126,
      "count": 55241,
      "max": [
        6.625328063964844,
        -0.9744330048561096,
        2.2705891132354736
      ],
      "min": [
        4.78107213973999,
        -2.609196901321411,
        -0.066211998462677
      ],
      "type": "VEC3"
    },
    {
      "bufferView": 2,
      "byteOffset": 662892,
      "componentType": 5126,
      "count": 55241,
      "max": [
        0.9999638795852661,
        0.9999823570251465,
        0.9999836683273315
      ],
      "min": [
        -0.9999300241470337,
        -0.9999932050704956,
        -0.9996992945671082
      ],
      "type": "VEC3"
    },
    {
      "bufferView": 1,
      "componentType": 5126,
      "count": 55241,
      "max": [
        0.9935389757156372,
        0.9999939799308777
      ],
      "min": [
        3.600000127335079e-05,
        1.4000000192027073e-05
      ],
      "type": "VEC2"
    },
    {
      "bufferView": 0,
      "componentType": 5125,
      "count": 300012,
      "type": "SCALAR"
    },
    {
      "bufferView": 2,
      "byteOffset": 1325784,
      "componentType": 5126,
      "count": 55241,
      "max": [
        5.975078105926514,
        0.038182999938726425,
        2.1738529205322266
      ],
      "min": [
        4.3199992179870605,
        -1.7334680557250977,
        -0.16945600509643555
      ],
      "type": "VEC3"
    },
    {
      "bufferView": 2,
      "byteOffset": 1988676,
      "componentType": 5126,
      "count": 55241,
      "max": [
        0.9999916553497314,
        0.9999957084655762,
        0.9999865293502808
      ],
      "min": [
        -0.9999899864196777,
        -0.9999957084655762,
        -0.999995231628418
      ],
      "type": "VEC3"
    },
    {
      "bufferView": 1,
      "byteOffset": 441928,
      "componentType": 5126,
      "count": 55241,
      "max": [
        0.9935389757156372,
        0.9999939799308777
      ],
      "min": [
        3.600000127335079e-05,
        1.4000000192027073e-05
      ],
      "type": "VEC2"
    },
    {
      "bufferView": 0,
      "byteOffset": 1200048,
      "componentType": 5125,
      "count": 300012,
      "type": "SCALAR"
    },
    {
      "bufferView": 2,
      "byteOffset": 2651568,
      "componentType": 5126,
      "count": 55963,
      "max": [
        4.3811187744140625,
        0.8299099802970886,
        2.350512981414795
      ],
      "min": [
        -4.453149795532227,
        -1.2229859828948975,
        -0.015814000740647316
      ],
      "type": "VEC3"
    },
    {
      "bufferView": 2,
      "byteOffset": 3323124,
      "componentType": 5126,
      "count": 55963,
      "max": [
        0.9999231100082397,
        0.9999679327011108,
        0.9999958276748657
      ],
      "min": [
        -0.9999895095825195,
        -0.9999998807907104,
        -0.9999980926513672
      ],
      "type": "VEC3"
    },
    {
      "bufferView": 1,
      "byteOffset": 883856,
      "componentType": 5126,
      "count": 55963,
      "max": [
        0.9976509809494019,
        0.9999709725379944
      ],
      "min": [
        1.2999999853491317e-05,
        9.999999974752427e-07
      ],
      "type": "VEC2"
    },
    {
      "bufferView": 0,
      "byteOffset": 2400096,
      "componentType": 5125,
      "count": 300000,
      "type": "SCALAR"
    }
  ],
  "asset": {
    "extras": {
      "author": "infinition (https://sketchfab.com/infinition)",
      "license": "SKETCHFAB Standard (https://sketchfab.com/licenses)",
      "source": "https://sketchfab.com/3d-models/kid-snowboard-and-boots-e81d698eec4246719549c1281c7893b9",
      "title": "Kid Snowboard and boots"
    },
    "generator": "Sketchfab-14.57.0",
    "version": "2.0"
  },
  "bufferViews": [
    {
      "buffer": 0,
      "byteLength": 3600096,
      "name": "floatBufferViews",
      "target": 34963
    },
    {
      "buffer": 0,
      "byteLength": 1331560,
      "byteOffset": 3600096,
      "byteStride": 8,
      "name": "floatBufferViews",
      "target": 34962
    },
    {
      "buffer": 0,
      "byteLength": 3994680,
      "byteOffset": 4931656,
      "byteStride": 12,
      "name": "floatBufferViews",
      "target": 34962
    }
  ],
  "buffers": [
    {
      "byteLength": 8926336,
      "uri": "scene.bin"
    }
  ],
  "extensionsUsed": [
    "KHR_materials_unlit"
  ],
  "images": [
    {
      "uri": "textures/Boots_baseColor.png"
    },
    {
      "uri": "textures/Snowboard_baseColor.png"
    }
  ],
  "materials": [
    {
      "doubleSided": true,
      "extensions": {
        "KHR_materials_unlit": {}
      },
      "name": "Boots",
      "pbrMetallicRoughness": {
        "baseColorTexture": {
          "index": 0
        },
        "metallicFactor": 0.0
      }
    },
    {
      "doubleSided": true,
      "extensions": {
        "KHR_materials_unlit": {}
      },
      "name": "Snowboard",
      "pbrMetallicRoughness": {
        "baseColorTexture": {
          "index": 1
        },
        "metallicFactor": 0.0
      }
    }
  ],
  "meshes": [
    {
      "name": "Object_0",
      "primitives": [
        {
          "attributes": {
            "NORMAL": 1,
            "POSITION": 0,
            "TEXCOORD_0": 2
          },
          "indices": 3,
          "material": 0,
          "mode": 4
        }
      ]
    },
    {
      "name": "Object_1",
      "primitives": [
        {
          "attributes": {
            "NORMAL": 5,
            "POSITION": 4,
            "TEXCOORD_0": 6
          },
          "indices": 7,
          "material": 0,
          "mode": 4
        }
      ]
    },
    {
      "name": "Object_2",
      "primitives": [
        {
          "attributes": {
            "NORMAL": 9,
            "POSITION": 8,
            "TEXCOORD_0": 10
          },
          "indices": 11,
          "material": 1,
          "mode": 4
        }
      ]
    }
  ],
  "nodes": [
    {
      "children": [
        1
      ],
      "matrix": [
        1.0,
        0.0,
        0.0,
        0.0,
        0.0,
        2.220446049250313e-16,
        -1.0,
        0.0,
        0.0,
        1.0,
        2.220446049250313e-16,
        0.0,
        0.0,
        0.0,
        0.0,
        1.0
      ],
      "name": "Sketchfab_model"
    },
    {
      "children": [
        2,
        3,
        4
      ],
      "name": "Boots scene.obj.cleaner.materialmerger.gles"
    },
    {
      "mesh": 0,
      "name": "Object_2"
    },
    {
      "mesh": 1,
      "name": "Object_3"
    },
    {
      "mesh": 2,
      "name": "Object_4"
    }
  ],
  "samplers": [
    {
      "magFilter": 9729,
      "minFilter": 9987,
      "wrapS": 10497,
      "wrapT": 10497
    }
  ],
  "scene": 0,
  "scenes": [
    {
      "name": "Sketchfab_Scene",
      "nodes": [
        0
      ]
    }
  ],
  "textures": [
    {
      "sampler": 0,
      "source": 0
    },
    {
      "sampler": 0,
      "source": 1
    }
  ]
}
