<svg xmlns="http://www.w3.org/2000/svg" version="1.1" xmlns:xlink="http://www.w3.org/1999/xlink" xmlns:svgjs="http://svgjs.dev/svgjs" width="2000" height="2000" viewBox="0 0 2000 2000"><g transform="matrix(1,0,0,1,-0.28443113772425477,-0.28443113772459583)"><svg viewBox="0 0 334 334" data-background-color="#ffffff" preserveAspectRatio="xMidYMid meet" height="2000" width="2000" xmlns="http://www.w3.org/2000/svg" xmlns:xlink="http://www.w3.org/1999/xlink"><g id="tight-bounds" transform="matrix(1,0,0,1,0.04749999999998522,0.04750000000001364)"><svg viewBox="0 0 333.90454557049503 333.90454557049503" height="333.90454557049503" width="333.90454557049503"><g><svg></svg></g><g><svg viewBox="0 0 333.90454557049503 333.90454557049503" height="333.90454557049503" width="333.90454557049503"><g><path d="M0 166.952c0-92.205 74.747-166.952 166.952-166.952 92.205 0 166.952 74.747 166.953 166.952 0 92.205-74.747 166.952-166.953 166.953-92.205 0-166.952-74.747-166.952-166.953zM166.952 316.63c82.665 0 149.677-67.013 149.678-149.678 0-82.665-67.013-149.677-149.678-149.677-82.665 0-149.677 67.013-149.677 149.677 0 82.665 67.013 149.677 149.677 149.678z" data-fill-palette-color="tertiary" fill="#049b9b" stroke="transparent"></path><ellipse rx="160.27418187383762" ry="160.27418187383762" cx="166.95227278524752" cy="166.95227278524752" fill="#049b9b" stroke="transparent" stroke-width="0" fill-opacity="1" data-fill-palette-color="tertiary"></ellipse></g><g transform="matrix(1,0,0,1,90.21083254016146,71.17305217166896)"><svg viewBox="0 0 153.4828804901721 191.55844122715712" height="191.55844122715712" width="153.4828804901721"><g><svg viewBox="0 0 153.4828804901721 191.55844122715712" height="191.55844122715712" width="153.4828804901721"><g><svg viewBox="0 0 153.4828804901721 191.55844122715712" height="191.55844122715712" width="153.4828804901721"><g><svg viewBox="0 0 153.4828804901721 191.55844122715712" height="191.55844122715712" width="153.4828804901721"><g id="textblocktransform"><svg viewBox="0 0 153.4828804901721 191.55844122715712" height="191.55844122715712" width="153.4828804901721" id="textblock"><g><svg viewBox="0 0 153.4828804901721 191.55844122715712" height="191.55844122715712" width="153.4828804901721"><g transform="matrix(1,0,0,1,0,0)"><svg width="153.4828804901721" viewBox="0.3 -32.45 26 32.45" height="191.55844122715712" data-palette-color="#ffffff"><path d="M11.68-27.35L0.3-27.35 0.3-32.45 26.3-32.45 26.3-27.35 14.93-27.35 16.25-28.7 16.25 0 10.35 0 10.35-28.7 11.68-27.35Z" opacity="1" transform="matrix(1,0,0,1,0,0)" fill="#ffffff" class="wordmark-text-0" data-fill-palette-color="quaternary" id="text-0"></path></svg></g></svg></g></svg></g></svg></g></svg></g></svg></g></svg></g></svg></g><defs></defs></svg><rect width="333.90454557049503" height="333.90454557049503" fill="none" stroke="none" visibility="hidden"></rect></g></svg></g></svg>